<?xml version="1.0" encoding="utf-8"?>
<!-- Generator: Adobe Illustrator 25.2.0, SVG Export Plug-In . SVG Version: 6.00 Build 0)  -->
<svg version="1.1" id="圖層_1" xmlns="http://www.w3.org/2000/svg" xmlns:xlink="http://www.w3.org/1999/xlink" x="0px" y="0px"
	 viewBox="0 0 896 512" style="enable-background:new 0 0 896 512;" xml:space="preserve">
<style type="text/css">
	.st0{fill:#FF9300;}
</style>
<path class="st0" d="M400,256h-24v-88v-13.8V152C376,68,307.5-0.3,223.5,0C174,0.2,130.2,24.3,102.6,61.3c-0.1,0.2-0.3,0.4-0.4,0.6
	c-0.2,0.2-0.4,0.5-0.5,0.7C83,87.8,72,118.9,72,152.7v0.8v15.2V256H48c-26.5,0-48,21.5-48,48v0.7V464v0.7c0,26.5,21.5,48,48,48h352
	c26.5,0,48-21.5,48-48V464V304.7V304C448,277.5,426.5,256,400,256z M152,256v-87.3v-15.8c0-8.4,1.4-16.4,4-23.9
	c0.1-0.3,0.2-0.7,0.3-1s0.2-0.6,0.4-0.9c10.4-27.3,37-46.7,68-46.4C264.3,81,296,114,296,153.5V168v88H152z M262.5,378.5
	c0,21.3-17.2,38.5-38.5,38.5s-38.5-17.2-38.5-38.5S202.7,340,224,340S262.5,357.2,262.5,378.5z"/>
</svg>
