<?xml version="1.0" encoding="utf-8"?>
<!-- Generator: Adobe Illustrator 25.2.0, SVG Export Plug-In . SVG Version: 6.00 Build 0)  -->
<svg version="1.1" id="圖層_1" xmlns="http://www.w3.org/2000/svg" xmlns:xlink="http://www.w3.org/1999/xlink" x="0px" y="0px"
	 viewBox="0 0 111 111" style="enable-background:new 0 0 111 111;" xml:space="preserve">
<style type="text/css">
	.st0{fill:#FF9300;}
	.st1{fill:none;stroke:#FF9300;stroke-width:6;stroke-linecap:round;stroke-miterlimit:10;}
</style>
<g>
	<g>
		<ellipse class="st0" cx="42.7" cy="47" rx="5.7" ry="8.1"/>
		<ellipse class="st0" cx="68.3" cy="47" rx="5.7" ry="8.1"/>
	</g>
	<g>
		<path class="st0" d="M55.5,18C76.2,18,93,34.8,93,55.5S76.2,93,55.5,93S18,76.2,18,55.5S34.8,18,55.5,18 M55.5,12
			C31.5,12,12,31.5,12,55.5S31.5,99,55.5,99S99,79.5,99,55.5S79.5,12,55.5,12L55.5,12z"/>
	</g>
	<path class="st1" d="M32.9,63.6c3.3,9.2,12.2,15.9,22.6,15.9s19.2-6.6,22.6-15.9"/>
</g>
</svg>
