<?xml version="1.0" encoding="utf-8"?>
<!-- Generator: Adobe Illustrator 25.2.0, SVG Export Plug-In . SVG Version: 6.00 Build 0)  -->
<svg version="1.1" id="圖層_1" xmlns="http://www.w3.org/2000/svg" xmlns:xlink="http://www.w3.org/1999/xlink" x="0px" y="0px"
	 viewBox="0 0 896 512" style="enable-background:new 0 0 896 512;" xml:space="preserve">
<style type="text/css">
	.st0{fill:#FF9300;}
</style>
<path class="st0" d="M376,256V152.9c0-39.6,31.7-72.5,71.3-72.9c40-0.4,72.7,32.1,72.7,72v16c0,13.3,10.7,24,24,24h32
	c13.3,0,24-10.7,24-24v-16C600,68,531.5-0.3,447.5,0S296,69.5,296,153.5V256"/>
<path class="st0" d="M296,256H48c-26.5,0-48,21.5-48,48l0,160c0,26.5,21.5,48,48,48h352c26.5,0,48-21.5,48-48V304
	c0-26.5-21.5-48-48-48h-24 M224,340c21.3,0,38.5,17.2,38.5,38.5S245.3,417,224,417s-38.5-17.2-38.5-38.5S202.7,340,224,340z"/>
</svg>
