<?xml version="1.0" encoding="utf-8"?>
<!-- Generator: Adobe Illustrator 25.2.0, SVG Export Plug-In . SVG Version: 6.00 Build 0)  -->
<svg version="1.1" id="圖層_1" xmlns="http://www.w3.org/2000/svg" xmlns:xlink="http://www.w3.org/1999/xlink" x="0px" y="0px"
	 viewBox="0 0 375 705" style="enable-background:new 0 0 375 705;" xml:space="preserve">
<style type="text/css">
	.st0{fill:url(#SVGID_1_);}
	.st1{fill:#FFFFFF;}
</style>
<radialGradient id="SVGID_1_" cx="-2058.0232" cy="29.3704" r="293.2487" gradientTransform="matrix(0 0.9692 -0.9437 0 215.2157 2347.5623)" gradientUnits="userSpaceOnUse">
	<stop  offset="0" style="stop-color:#BAB51F"/>
	<stop  offset="1" style="stop-color:#638733"/>
</radialGradient>
<polygon class="st0" points="0,705.65 0,0 375,0 375,705.65 "/>
<path class="st1" d="M14.47,689.38V14.48l350.3,0.02v674.9L14.47,689.38L14.47,689.38z M12.47,691.38l354.31,0.02V12.49L12.47,12.47
	V691.38L12.47,691.38z"/>
<path class="st1" d="M365.98,665.55l0.1,2c-12.17,0.58-22.02,10.58-22.42,22.76l-2-0.07C342.08,677.02,352.77,666.17,365.98,665.55z
	"/>
<path class="st1" d="M13.41,665.62c13.21,0.63,23.89,11.48,24.33,24.69l-2.01,0.07c-0.4-12.18-10.25-22.18-22.41-22.76L13.41,665.62
	z"/>
<path class="st1" d="M36.87,13.34h2.01c0,14.1-11.47,25.58-25.58,25.58v-2.01C26.29,36.91,36.87,26.34,36.87,13.34z"/>
<path class="st1" d="M342.47,13.36h2.01c0,12.26,9.19,22.35,21.38,23.47l-0.18,2C352.44,37.61,342.47,26.66,342.47,13.36z"/>
<path class="st1" d="M156.41,688.91v-28.77h66.43v28.77H156.41L156.41,688.91z M154.4,690.91h70.44v-32.78H154.4V690.91
	L154.4,690.91z"/>
<path class="st1" d="M122.8,74.24V14.63h133.65v59.62H122.8L122.8,74.24z M121.03,76.01h137.19V12.86H121.03V76.01L121.03,76.01z"/>
<path class="st1" d="M122.8,629.87v59.62h133.65v-59.62H122.8L122.8,629.87z M121.03,628.1h137.19v63.15H121.03V628.1L121.03,628.1z
	"/>
<path class="st1" d="M156.41,43.86V15.09h66.43v28.77H156.41L156.41,43.86z M154.4,45.87h70.44V13.09H154.4V45.87L154.4,45.87z"/>
<rect x="12.88" y="350.93" class="st1" width="353.48" height="2.01"/>
<path class="st1" d="M189.62,310.73c22.72,0,41.21,18.48,41.21,41.2c0,22.72-18.48,41.21-41.21,41.21
	c-22.72,0-41.2-18.48-41.2-41.21C148.42,329.22,166.9,310.73,189.62,310.73z M189.62,391.14c21.62,0,39.2-17.58,39.2-39.2
	s-17.58-39.2-39.2-39.2c-21.62,0-39.2,17.58-39.2,39.2S168.01,391.14,189.62,391.14z"/>
</svg>
