<?xml version="1.0" encoding="utf-8"?>
<!-- Generator: Adobe Illustrator 25.2.0, SVG Export Plug-In . SVG Version: 6.00 Build 0)  -->
<svg version="1.1" id="圖層_1" xmlns="http://www.w3.org/2000/svg" xmlns:xlink="http://www.w3.org/1999/xlink" x="0px" y="0px"
	 viewBox="0 0 62 30" style="enable-background:new 0 0 62 30;" xml:space="preserve">
<style type="text/css">
	.st0{fill:#0180C7;}
	.st1{fill:none;}
</style>
<g>
	<g>
		<path class="st0" d="M8.96,22.58c2.85,0,5.52-0.02,8.18,0c1.49,0.02,2.3,0.64,2.45,1.83c0.17,1.49-0.7,2.49-2.32,2.51
			c-3.05,0.04-6.09,0.02-9.14,0.02c-0.89,0-1.75,0.04-2.64-0.02c-1.09-0.06-2.17-0.28-2.7-1.42c-0.53-1.13-0.15-2.15,0.57-3.08
			c2.9-3.69,5.83-7.41,8.75-11.11c0.17-0.23,0.34-0.45,0.51-0.66c-0.19-0.32-0.45-0.17-0.68-0.19c-2.04-0.02-4.09,0-6.13-0.02
			c-0.47,0-0.94-0.06-1.4-0.15c-1.07-0.24-1.73-1.32-1.49-2.38c0.17-0.72,0.74-1.3,1.45-1.47c0.45-0.11,0.92-0.17,1.4-0.17
			c3.36-0.02,6.73-0.02,10.09,0c0.6-0.02,1.19,0.06,1.77,0.21c1.28,0.44,1.83,1.62,1.32,2.87c-0.45,1.07-1.17,2-1.89,2.92
			c-2.47,3.15-4.94,6.28-7.41,9.39C9.44,21.92,9.26,22.16,8.96,22.58L8.96,22.58z"/>
		<path class="st0" d="M30.83,12.66c0.45-0.59,0.92-1.13,1.7-1.28c1.49-0.3,2.88,0.66,2.9,2.17c0.06,3.77,0.04,7.54,0,11.31
			c0,0.98-0.64,1.85-1.57,2.13c-0.94,0.36-2.02,0.08-2.64-0.74c-0.32-0.39-0.45-0.47-0.9-0.11c-1.72,1.4-3.66,1.64-5.75,0.96
			c-3.36-1.09-4.73-3.71-5.11-6.9c-0.39-3.45,0.75-6.39,3.85-8.2C25.87,10.47,28.47,10.6,30.83,12.66L30.83,12.66z M24.15,19.54
			c0.04,0.83,0.3,1.62,0.79,2.28c1.02,1.36,2.96,1.64,4.34,0.62c0.23-0.17,0.44-0.38,0.62-0.62c1.06-1.43,1.06-3.79,0-5.22
			c-0.53-0.74-1.36-1.17-2.25-1.19C25.59,15.28,24.13,16.88,24.15,19.54z M43.89,19.65c-0.15-4.84,3.03-8.47,7.56-8.6
			c4.81-0.15,8.31,3.08,8.47,7.79c0.15,4.77-2.77,8.14-7.28,8.6C47.72,27.93,43.82,24.37,43.89,19.65L43.89,19.65z M48.63,19.2
			c-0.04,0.94,0.24,1.87,0.81,2.64c1.04,1.36,2.98,1.62,4.34,0.57c0.21-0.15,0.38-0.34,0.55-0.53c1.09-1.43,1.09-3.85,0.02-5.28
			c-0.53-0.72-1.36-1.17-2.25-1.19C50.06,15.3,48.63,16.84,48.63,19.2z M42.24,15.9c0,2.92,0.02,5.85,0,8.77
			c0.02,1.34-1.04,2.45-2.38,2.49c-0.23,0-0.47-0.02-0.7-0.08c-0.94-0.24-1.66-1.24-1.66-2.43V9.66c0-0.89-0.02-1.75,0-2.64
			c0.02-1.45,0.94-2.4,2.34-2.4c1.43-0.02,2.4,0.92,2.4,2.43C42.26,10,42.24,12.96,42.24,15.9z"/>
	</g>
	<rect class="st1" width="62" height="30"/>
</g>
</svg>
