<?xml version="1.0" encoding="utf-8"?>
<!-- Generator: Adobe Illustrator 25.2.0, SVG Export Plug-In . SVG Version: 6.00 Build 0)  -->
<svg version="1.1" id="圖層_1" xmlns="http://www.w3.org/2000/svg" xmlns:xlink="http://www.w3.org/1999/xlink" x="0px" y="0px"
	 viewBox="0 0 30 30" style="enable-background:new 0 0 30 30;" xml:space="preserve">
<style type="text/css">
	.st0{fill:#00B060;}
	.st1{fill:#FFC107;}
	.st2{fill:#F44336;}
	.st3{fill:#2196F3;}
	.st4{fill:none;}
</style>
<g>
	<g>
		<path id="svg_10" class="st0" d="M15,22.65c-3.3,0-6.09-2.1-7.16-5.04l-4,3.42C6,25.01,10.16,27.75,15,27.75
			c3.21,0,6.11-1.23,8.35-3.19l-4.07-3.22C18.06,22.17,16.59,22.65,15,22.65z"/>
		<g>
			<path id="svg_8" class="st1" d="M7.35,15c0-0.93,0.19-1.8,0.49-2.62L3.79,9.04C2.84,10.83,2.25,12.84,2.25,15
				c0,2.2,0.61,4.23,1.58,6.04l4-3.42C7.54,16.79,7.35,15.92,7.35,15z"/>
			<path id="svg_9" class="st2" d="M15,7.35c1.56,0,3.01,0.47,4.22,1.28l4.15-3.17c-2.24-1.97-5.15-3.2-8.37-3.2
				c-4.88,0-9.06,2.77-11.21,6.8l4.05,3.33C8.92,9.45,11.7,7.35,15,7.35z"/>
			<path id="svg_11" class="st3" d="M27.48,12.45H15v5.1h7.16c-0.55,1.55-1.54,2.89-2.88,3.79l4.07,3.22
				c2.67-2.34,4.4-5.73,4.4-9.56C27.75,14.12,27.65,13.27,27.48,12.45z"/>
		</g>
	</g>
	<rect class="st4" width="30" height="30"/>
</g>
</svg>
