<?xml version="1.0" encoding="utf-8"?>
<!-- Generator: Adobe Illustrator 25.2.0, SVG Export Plug-In . SVG Version: 6.00 Build 0)  -->
<svg version="1.1" id="圖層_1" xmlns="http://www.w3.org/2000/svg" xmlns:xlink="http://www.w3.org/1999/xlink" x="0px" y="0px"
	 viewBox="0 0 87.89 22.01" style="enable-background:new 0 0 87.89 22.01;" xml:space="preserve">
<style type="text/css">
	.st0{fill:#09661F;}
	.st1{fill:#FF9300;}
	.st2{fill:#464546;}
	.st3{fill:#618434;}
	.st4{fill:#8CA924;}
	.st5{fill:#0094A6;}
	.st6{fill:#FFBE1D;}
	.st7{fill:#E86319;}
</style>
<g>
	<g>
		<path class="st0" d="M10.87,6.87l0,5.9c-0.8,0-1.34,0.15-1.64,0.44c-0.3,0.29-0.49,0.88-0.57,1.74c-0.26,2.89-1.39,4.92-3.38,6.11
			C4.23,21.69,2.73,22,0.78,22L0,22l0-5.93l0.26,0c0.91,0,1.55-0.19,1.94-0.56c0.39-0.37,0.61-1.03,0.67-1.97
			c0.08-1.53,0.22-2.6,0.43-3.22C3.51,9.7,3.93,9.08,4.56,8.47c1.11-1.07,2.64-1.6,4.6-1.6L10.87,6.87z"/>
	</g>
	<g>
		<path class="st0" d="M19.85,6.35c2.13,0,3.96,0.76,5.49,2.29c1.52,1.52,2.29,3.35,2.29,5.48c0,2.16-0.77,3.99-2.32,5.51
			c-1.55,1.52-3.41,2.28-5.59,2.28c-2.18,0-4.05-0.76-5.6-2.29c-1.55-1.52-2.32-3.36-2.32-5.51c0-2.19,0.78-4.03,2.33-5.52
			C15.67,7.1,17.58,6.35,19.85,6.35z M19.7,11.88c-0.6,0-1.12,0.22-1.54,0.65c-0.42,0.43-0.63,0.97-0.63,1.6
			c0,0.62,0.21,1.15,0.64,1.59c0.43,0.44,0.94,0.66,1.53,0.66c0.6,0,1.12-0.22,1.55-0.66c0.43-0.44,0.64-0.97,0.64-1.59
			c0-0.63-0.21-1.16-0.63-1.6C20.83,12.09,20.32,11.88,19.7,11.88z"/>
	</g>
	<g>
		<path class="st0" d="M34.17,6.67l0,14.94l-5.65,0l0-14.94L34.17,6.67z M31.36,0c0.76,0,1.43,0.27,1.99,0.8
			c0.56,0.53,0.84,1.17,0.84,1.9c0,0.78-0.26,1.42-0.79,1.92c-0.53,0.5-1.21,0.75-2.03,0.75c-0.83,0-1.5-0.25-2.03-0.75
			c-0.53-0.5-0.79-1.14-0.79-1.92c0-0.73,0.28-1.36,0.84-1.9C29.93,0.27,30.6,0,31.36,0z"/>
	</g>
	<g>
		<path class="st0" d="M41.67,1.16l0,20.45l-5.65,0l0-20.45L41.67,1.16z M50.32,6.67l-2.76,5.44l4.1,9.5l-6.25,0l-3.53-9.75
			l2.57-5.18L50.32,6.67z"/>
	</g>
	<g>
		<path class="st0" d="M66.02,15.05l-8.56,0c-0.13-0.43-0.2-0.82-0.2-1.18c0-0.5,0.09-0.99,0.27-1.47l2.87,0
			c-0.2-1.11-0.83-1.66-1.89-1.66c-0.7,0-1.28,0.3-1.72,0.89c-0.44,0.59-0.66,1.36-0.66,2.28c0,0.97,0.21,1.75,0.64,2.35
			c0.43,0.6,0.99,0.9,1.68,0.9c0.56,0,1.11-0.28,1.63-0.84l3.21,3.84c-1.5,1.17-3.17,1.75-5,1.75c-2.23,0-4.11-0.74-5.63-2.23
			c-1.52-1.49-2.28-3.33-2.28-5.53c0-2.19,0.77-4.03,2.3-5.54c1.53-1.51,3.42-2.26,5.65-2.26c2.18,0,4.02,0.74,5.5,2.21
			c1.48,1.47,2.23,3.29,2.23,5.45C66.08,14.22,66.06,14.57,66.02,15.05z"/>
	</g>
	<g>
		<polygon class="st1" points="87.89,1.49 81.05,3.42 83.19,5.38 74.52,14.31 75.74,15.48 84.42,6.52 86.58,8.51 		"/>
	</g>
	<g>
		<path class="st2" d="M76.54,12.07l0-5.82c-1.94,0-3.61,0.6-5.1,1.84l3.77,4.46C75.57,12.25,76.03,12.07,76.54,12.07z"/>
		<path class="st3" d="M74.47,14.12c0-0.63,0.29-1.19,0.74-1.57l-3.77-4.46c-0.37,0.31-0.67,0.6-0.98,0.97
			c-2.82,3.33-2.38,8.29,0.98,11.09l3.77-4.46C74.76,15.32,74.47,14.75,74.47,14.12z"/>
		<path class="st4" d="M77.86,15.7c-0.36,0.3-0.82,0.48-1.33,0.48c-0.51,0-0.97-0.18-1.33-0.48l-3.77,4.46
			c2.98,2.48,7.22,2.48,10.2,0L77.86,15.7z"/>
		<path class="st5" d="M78.57,14.48c-0.09,0.48-0.34,0.91-0.71,1.22l3.77,4.46c1.49-1.24,2.38-2.76,2.71-4.66L78.57,14.48z"/>
		<path class="st6" d="M83.41,10.19l-5.08,2.91c0.18,0.3,0.28,0.65,0.28,1.03c0,0.12-0.01,0.24-0.03,0.36l5.78,1.01
			C84.68,13.59,84.38,11.86,83.41,10.19z"/>
		<path class="st7" d="M78.33,13.1l5.08-2.91c-1.46-2.51-3.95-3.94-6.87-3.94l0,5.82C77.3,12.07,77.97,12.49,78.33,13.1z"/>
	</g>
	<polygon class="st1" points="73.35,13.95 75.74,15.51 76.86,14.23 73.29,11.6 64.31,21.91 66.54,21.91 	"/>
</g>
</svg>
